<svg width="55" height="24" viewBox="0 0 55 24" fill="none" xmlns="http://www.w3.org/2000/svg">
<path d="M40.3129 5.71198C36.6659 4.74098 32.4739 4.04499 27.9539 4.04599C25.3711 4.03868 22.7921 4.24705 20.244 4.66898L13.46 0.000976562L0.00390625 0.00598145L5.81494 6.18997H14.262C9.68196 7.78797 7.50293 9.70499 7.50293 9.70499L7.50494 13.482C7.50494 13.482 9.81791 15.394 14.4359 17L5.81293 16.995L0.00195312 23.183L13.4569 23.185L20.2729 18.493C22.5339 18.891 25.0949 19.14 27.9539 19.141C32.4759 19.14 36.6659 18.444 40.3139 17.474C39.1379 15.699 38.3989 13.731 38.3959 11.597C38.3989 9.45598 39.1339 7.48498 40.3129 5.71198ZM43.736 6.74597C42.452 8.35097 41.7669 9.99597 41.7709 11.586C41.7639 13.183 42.448 14.824 43.739 16.433C50.138 14.271 54.158 11.592 54.158 11.592C54.158 11.592 50.139 8.91197 43.736 6.74597Z" fill="#F50056"/>
</svg>
