<svg width="37" height="37" viewBox="0 0 37 37" fill="none" xmlns="http://www.w3.org/2000/svg">
<g clip-path="url(#clip0_3561_11752)">
<path d="M25.6157 15.6538H11.3849L8.39645 19.7807C5.69261 23.623 4.26953 28.0346 4.26953 32.7307H32.7311C32.7311 28.0346 31.308 23.623 28.6041 19.7807L25.6157 15.6538Z" stroke="#F50056" stroke-width="2" stroke-miterlimit="10" stroke-linejoin="round"/>
<path d="M18.4997 28.4613C20.8575 28.4613 22.7689 26.5499 22.7689 24.1921C22.7689 21.8343 20.8575 19.9229 18.4997 19.9229C16.1419 19.9229 14.2305 21.8343 14.2305 24.1921C14.2305 26.5499 16.1419 28.4613 18.4997 28.4613Z" stroke="#F50056" stroke-width="2" stroke-miterlimit="10" stroke-linejoin="round"/>
<path d="M14.0892 5.69208H22.77C24.3354 5.69208 25.6161 6.97285 25.6161 8.39593C25.6161 9.96131 26.8969 11.3844 28.6046 11.3844H35.5777C35.5777 5.83439 31.1661 1.42285 25.6161 1.42285H11.3854C5.97767 1.42285 1.42383 5.83439 1.42383 11.3844H8.3969C9.96229 11.3844 11.3854 10.1036 11.3854 8.39593C11.3854 6.97285 12.6661 5.69208 14.0892 5.69208Z" stroke="#F50056" stroke-width="2" stroke-miterlimit="10" stroke-linejoin="round"/>
<path d="M15.6543 12.8076V15.6538" stroke="#F50056" stroke-width="2" stroke-miterlimit="10" stroke-linecap="round" stroke-linejoin="round"/>
<path d="M21.3457 12.8076V15.6538" stroke="#F50056" stroke-width="2" stroke-miterlimit="10" stroke-linecap="round" stroke-linejoin="round"/>
<path d="M28.4609 32.731V35.5771" stroke="#F50056" stroke-width="2" stroke-miterlimit="10" stroke-linecap="round" stroke-linejoin="round"/>
<path d="M8.53906 32.731V35.5771" stroke="#F50056" stroke-width="2" stroke-miterlimit="10" stroke-linecap="round" stroke-linejoin="round"/>
</g>
<defs>
<clipPath id="clip0_3561_11752">
<rect width="37" height="37" fill="white"/>
</clipPath>
</defs>
</svg>
