<svg width="34" height="37" viewBox="0 0 34 37" fill="none" xmlns="http://www.w3.org/2000/svg">
<g clip-path="url(#clip0_3561_11735)">
<path d="M5.73101 33.3148H1.84395C1.35491 33.3148 0.88589 33.5099 0.540082 33.8572C0.194273 34.2045 0 34.6755 0 35.1666C0 35.6578 0.194273 36.1288 0.540082 36.4761C0.88589 36.8234 1.35491 37.0185 1.84395 37.0185H31.3472C31.8363 37.0185 32.3053 36.8234 32.6511 36.4761C32.9969 36.1288 33.1912 35.6578 33.1912 35.1666C33.1912 34.6755 32.9969 34.2045 32.6511 33.8572C32.3053 33.5099 31.8363 33.3148 31.3472 33.3148H27.4602C27.0047 28.1777 25.4853 19.2222 20.4052 16.6481C25.1331 14.0129 26.7724 7.7407 27.3458 3.68515H31.3472C31.8363 3.68515 32.3053 3.49004 32.6511 3.14275C32.9969 2.79546 33.1912 2.32444 33.1912 1.8333C33.1912 1.34216 32.9969 0.87113 32.6511 0.52384C32.3053 0.17655 31.8363 -0.0185547 31.3472 -0.0185547H1.84395C1.35491 -0.0185547 0.88589 0.17655 0.540082 0.52384C0.194273 0.87113 0 1.34216 0 1.8333C0 2.32444 0.194273 2.79546 0.540082 3.14275C0.88589 3.49004 1.35491 3.68515 1.84395 3.68515H5.84534C6.41881 7.7407 8.05808 14.0129 12.786 16.6481C7.70588 19.2222 6.18647 28.1777 5.73101 33.3148ZM11.0637 27.0185C11.0637 24.7963 16.5956 20.3518 16.5956 20.3518C16.5956 20.3518 22.1275 24.7963 22.1275 27.0185V33.3148H11.0637V27.0185Z" fill="#F50056"/>
</g>
<defs>
<clipPath id="clip0_3561_11735">
<rect width="33.1912" height="37" fill="white"/>
</clipPath>
</defs>
</svg>
