<svg width="37" height="37" viewBox="0 0 37 37" fill="none" xmlns="http://www.w3.org/2000/svg">
<g clip-path="url(#clip0_3561_11739)">
<path fill-rule="evenodd" clip-rule="evenodd" d="M3.37816 0.0166016C1.52216 0.0166016 0.0175781 1.52118 0.0175781 3.37718V6.73776C0.0175781 8.59376 1.52216 10.0983 3.37816 10.0983H6.73874C8.59474 10.0983 10.0993 8.59376 10.0993 6.73776V3.37718C10.0993 1.52118 8.59474 0.0166016 6.73874 0.0166016H3.37816ZM6.73874 3.37718H3.37816V6.73776H6.73874V3.37718Z" fill="#F50056"/>
<path fill-rule="evenodd" clip-rule="evenodd" d="M3.37816 13.459C1.52216 13.459 0.0175781 14.9636 0.0175781 16.8196V20.1801C0.0175781 22.0362 1.52216 23.5407 3.37816 23.5407H6.73874C8.59474 23.5407 10.0993 22.0362 10.0993 20.1801V16.8196C10.0993 14.9636 8.59474 13.459 6.73874 13.459H3.37816ZM6.73874 16.8196H3.37816V20.1801H6.73874V16.8196Z" fill="#F50056"/>
<path fill-rule="evenodd" clip-rule="evenodd" d="M0.0175781 30.2619C0.0175781 28.4059 1.52216 26.9014 3.37816 26.9014H6.73874C8.59474 26.9014 10.0993 28.4059 10.0993 30.2619V33.6225C10.0993 35.4786 8.59474 36.9831 6.73874 36.9831H3.37816C1.52216 36.9831 0.0175781 35.4786 0.0175781 33.6225V30.2619ZM3.37816 30.2619H6.73874V33.6225H3.37816V30.2619Z" fill="#F50056"/>
<path fill-rule="evenodd" clip-rule="evenodd" d="M16.8196 0.0166016C14.9636 0.0166016 13.459 1.52118 13.459 3.37718V6.73776C13.459 8.59376 14.9636 10.0983 16.8196 10.0983H20.1801C22.0362 10.0983 23.5407 8.59376 23.5407 6.73776V3.37718C23.5407 1.52118 22.0362 0.0166016 20.1801 0.0166016H16.8196ZM20.1801 3.37718H16.8196V6.73776H20.1801V3.37718Z" fill="#F50056"/>
<path fill-rule="evenodd" clip-rule="evenodd" d="M13.459 16.8196C13.459 14.9636 14.9636 13.459 16.8196 13.459H20.1801C22.0362 13.459 23.5407 14.9636 23.5407 16.8196V20.1801C23.5407 22.0362 22.0362 23.5407 20.1801 23.5407H16.8196C14.9636 23.5407 13.459 22.0362 13.459 20.1801V16.8196ZM16.8196 16.8196H20.1801V20.1801H16.8196V16.8196Z" fill="#F50056"/>
<path fill-rule="evenodd" clip-rule="evenodd" d="M16.8196 26.9014C14.9636 26.9014 13.459 28.4059 13.459 30.2619V33.6225C13.459 35.4786 14.9636 36.9831 16.8196 36.9831H20.1801C22.0362 36.9831 23.5407 35.4786 23.5407 33.6225V30.2619C23.5407 28.4059 22.0362 26.9014 20.1801 26.9014H16.8196ZM20.1801 30.2619H16.8196V33.6225H20.1801V30.2619Z" fill="#F50056"/>
<path fill-rule="evenodd" clip-rule="evenodd" d="M26.9023 3.37718C26.9023 1.52118 28.4069 0.0166016 30.2629 0.0166016H33.6235C35.4796 0.0166016 36.9841 1.52118 36.9841 3.37718V6.73776C36.9841 8.59376 35.4796 10.0983 33.6235 10.0983H30.2629C28.4069 10.0983 26.9023 8.59376 26.9023 6.73776V3.37718ZM30.2629 3.37718H33.6235V6.73776H30.2629V3.37718Z" fill="#F50056"/>
<path fill-rule="evenodd" clip-rule="evenodd" d="M30.2629 13.459C28.4069 13.459 26.9023 14.9636 26.9023 16.8196V20.1801C26.9023 22.0362 28.4069 23.5407 30.2629 23.5407H33.6235C35.4796 23.5407 36.9841 22.0362 36.9841 20.1801V16.8196C36.9841 14.9636 35.4796 13.459 33.6235 13.459H30.2629ZM33.6235 16.8196H30.2629V20.1801H33.6235V16.8196Z" fill="#F50056"/>
<path fill-rule="evenodd" clip-rule="evenodd" d="M26.9023 30.2619C26.9023 28.4059 28.4069 26.9014 30.2629 26.9014H33.6235C35.4796 26.9014 36.9841 28.4059 36.9841 30.2619V33.6225C36.9841 35.4786 35.4796 36.9831 33.6235 36.9831H30.2629C28.4069 36.9831 26.9023 35.4786 26.9023 33.6225V30.2619ZM30.2629 30.2619H33.6235V33.6225H30.2629V30.2619Z" fill="#F50056"/>
</g>
<defs>
<clipPath id="clip0_3561_11739">
<rect width="37" height="37" fill="white"/>
</clipPath>
</defs>
</svg>
