<svg width="32" height="38" viewBox="0 0 32 38" fill="none" xmlns="http://www.w3.org/2000/svg">
<path d="M15.986 37.2998C24.813 37.2998 31.972 30.1408 31.972 21.3138C23.144 21.3138 15.986 28.4718 15.986 37.2998ZM4.627 16.4298C4.62726 17.6074 5.0951 18.7366 5.92768 19.5694C6.76025 20.4022 7.88943 20.8703 9.067 20.8708C9.999 20.8708 10.87 20.5768 11.58 20.0888L11.544 20.4258C11.544 22.8768 13.534 24.8668 15.985 24.8668C18.436 24.8668 20.425 22.8768 20.425 20.4258L20.389 20.0888C21.1274 20.6002 22.0048 20.8731 22.903 20.8708C25.354 20.8708 27.343 18.8808 27.343 16.4298C27.3426 15.5912 27.1036 14.77 26.6538 14.0622C26.204 13.3544 25.5621 12.7893 24.803 12.4328C25.5609 12.0748 26.2018 11.5092 26.6513 10.8018C27.1009 10.0944 27.3407 9.27398 27.343 8.43579C27.3425 7.62711 27.1213 6.83391 26.7031 6.14176C26.2849 5.44962 25.6856 4.88479 24.9699 4.50823C24.2543 4.13168 23.4494 3.95767 22.6421 4.005C21.8348 4.05233 21.0558 4.31919 20.389 4.77679L20.426 4.43979C20.4085 3.27364 19.933 2.16117 19.1021 1.3427C18.2713 0.524219 17.1518 0.0654297 15.9855 0.0654297C14.8192 0.0654297 13.6997 0.524219 12.8689 1.3427C12.038 2.16117 11.5625 3.27364 11.545 4.43979L11.581 4.77679C10.8428 4.26572 9.9658 3.99315 9.068 3.99579C7.8906 3.99632 6.76158 4.46427 5.92903 5.29682C5.09648 6.12937 4.62853 7.25839 4.628 8.43579C4.62862 9.27435 4.86776 10.0954 5.31752 10.8032C5.76727 11.5109 6.40908 12.0761 7.168 12.4328C6.40889 12.7893 5.76688 13.3545 5.31694 14.0622C4.867 14.77 4.62771 15.5911 4.627 16.4298ZM15.986 7.99279C17.1635 7.99306 18.2927 8.46093 19.1253 9.29353C19.9579 10.1261 20.4257 11.2553 20.426 12.4328C20.4085 13.5989 19.933 14.7114 19.1021 15.5299C18.2713 16.3484 17.1518 16.8072 15.9855 16.8072C14.8192 16.8072 13.6997 16.3484 12.8689 15.5299C12.038 14.7114 11.5625 13.5989 11.545 12.4328C11.545 9.98179 13.535 7.99279 15.986 7.99279ZM0 21.3138C0 30.1408 7.158 37.2998 15.986 37.2998C15.986 28.4718 8.828 21.3138 0 21.3138Z" fill="#F50056"/>
</svg>
